<mxfile host="app.diagrams.net" agent="Mozilla/5.0 (Windows NT 10.0; Win64; x64) AppleWebKit/537.36 (KHTML, like Gecko) Chrome/139.0.0.0 Safari/537.36 Edg/139.0.0.0" version="28.0.4">
  <diagram name="Página-1" id="nogd1nKAQmhjPqjEthID">
    <mxGraphModel grid="1" page="1" gridSize="10" guides="1" tooltips="1" connect="1" arrows="1" fold="1" pageScale="1" pageWidth="827" pageHeight="1169" math="0" shadow="0">
      <root>
        <mxCell id="0" />
        <mxCell id="1" parent="0" />
        <mxCell id="NhIJOwC5-hId4QMddHVE-1" value="Cliente" style="swimlane;fontStyle=1;align=center;verticalAlign=top;childLayout=stackLayout;horizontal=1;startSize=26;horizontalStack=0;resizeParent=1;resizeParentMax=0;resizeLast=0;collapsible=1;marginBottom=0;whiteSpace=wrap;html=1;" vertex="1" parent="1">
          <mxGeometry x="334" y="30" width="160" height="200" as="geometry" />
        </mxCell>
        <mxCell id="NhIJOwC5-hId4QMddHVE-2" value="+ nome_cliente: str&lt;div&gt;+ cpf: str&lt;/div&gt;&lt;div&gt;+ telefone: str&lt;/div&gt;&lt;div&gt;+ email: str&lt;/div&gt;&lt;div&gt;+ agendamentos: list&lt;/div&gt;&lt;div&gt;+ id: int&lt;/div&gt;" style="text;strokeColor=none;fillColor=none;align=left;verticalAlign=top;spacingLeft=4;spacingRight=4;overflow=hidden;rotatable=0;points=[[0,0.5],[1,0.5]];portConstraint=eastwest;whiteSpace=wrap;html=1;" vertex="1" parent="NhIJOwC5-hId4QMddHVE-1">
          <mxGeometry y="26" width="160" height="94" as="geometry" />
        </mxCell>
        <mxCell id="NhIJOwC5-hId4QMddHVE-3" value="" style="line;strokeWidth=1;fillColor=none;align=left;verticalAlign=middle;spacingTop=-1;spacingLeft=3;spacingRight=3;rotatable=0;labelPosition=right;points=[];portConstraint=eastwest;strokeColor=inherit;" vertex="1" parent="NhIJOwC5-hId4QMddHVE-1">
          <mxGeometry y="120" width="160" height="8" as="geometry" />
        </mxCell>
        <mxCell id="NhIJOwC5-hId4QMddHVE-4" value="+ to_dict()&lt;div&gt;+ from_dict()&lt;/div&gt;&lt;div&gt;+ __str__()&lt;/div&gt;&lt;div&gt;+ __repr__&lt;/div&gt;" style="text;strokeColor=none;fillColor=none;align=left;verticalAlign=top;spacingLeft=4;spacingRight=4;overflow=hidden;rotatable=0;points=[[0,0.5],[1,0.5]];portConstraint=eastwest;whiteSpace=wrap;html=1;" vertex="1" parent="NhIJOwC5-hId4QMddHVE-1">
          <mxGeometry y="128" width="160" height="72" as="geometry" />
        </mxCell>
        <mxCell id="NhIJOwC5-hId4QMddHVE-10" value="Agendamento" style="swimlane;fontStyle=1;align=center;verticalAlign=top;childLayout=stackLayout;horizontal=1;startSize=26;horizontalStack=0;resizeParent=1;resizeParentMax=0;resizeLast=0;collapsible=1;marginBottom=0;whiteSpace=wrap;html=1;" vertex="1" parent="1">
          <mxGeometry x="334" y="330" width="160" height="240" as="geometry" />
        </mxCell>
        <mxCell id="NhIJOwC5-hId4QMddHVE-11" value="+ cliente: str&lt;div&gt;+ data: str&lt;/div&gt;&lt;div&gt;+ horario:str&lt;/div&gt;&lt;div&gt;+ servico: str&lt;/div&gt;&lt;div&gt;+ preco: str&lt;/div&gt;&lt;div&gt;+ duracao: str&lt;/div&gt;&lt;div&gt;+ profissional: str&lt;/div&gt;&lt;div&gt;+ status: str&lt;/div&gt;&lt;div&gt;+ id: int&lt;/div&gt;" style="text;strokeColor=none;fillColor=none;align=left;verticalAlign=top;spacingLeft=4;spacingRight=4;overflow=hidden;rotatable=0;points=[[0,0.5],[1,0.5]];portConstraint=eastwest;whiteSpace=wrap;html=1;" vertex="1" parent="NhIJOwC5-hId4QMddHVE-10">
          <mxGeometry y="26" width="160" height="134" as="geometry" />
        </mxCell>
        <mxCell id="NhIJOwC5-hId4QMddHVE-12" value="" style="line;strokeWidth=1;fillColor=none;align=left;verticalAlign=middle;spacingTop=-1;spacingLeft=3;spacingRight=3;rotatable=0;labelPosition=right;points=[];portConstraint=eastwest;strokeColor=inherit;" vertex="1" parent="NhIJOwC5-hId4QMddHVE-10">
          <mxGeometry y="160" width="160" height="8" as="geometry" />
        </mxCell>
        <mxCell id="NhIJOwC5-hId4QMddHVE-13" value="+ to_dict()&lt;div&gt;+ from_dict()&lt;/div&gt;&lt;div&gt;+__str__()&lt;/div&gt;&lt;div&gt;+__repr__()&lt;/div&gt;" style="text;strokeColor=none;fillColor=none;align=left;verticalAlign=top;spacingLeft=4;spacingRight=4;overflow=hidden;rotatable=0;points=[[0,0.5],[1,0.5]];portConstraint=eastwest;whiteSpace=wrap;html=1;" vertex="1" parent="NhIJOwC5-hId4QMddHVE-10">
          <mxGeometry y="168" width="160" height="72" as="geometry" />
        </mxCell>
        <mxCell id="NhIJOwC5-hId4QMddHVE-14" value="Avaliação" style="swimlane;fontStyle=1;align=center;verticalAlign=top;childLayout=stackLayout;horizontal=1;startSize=26;horizontalStack=0;resizeParent=1;resizeParentMax=0;resizeLast=0;collapsible=1;marginBottom=0;whiteSpace=wrap;html=1;" vertex="1" parent="1">
          <mxGeometry x="334" y="690" width="160" height="200" as="geometry" />
        </mxCell>
        <mxCell id="NhIJOwC5-hId4QMddHVE-15" value="+ nota: float&lt;div&gt;+ comentarios: str&lt;/div&gt;&lt;div&gt;+ id_agendamento: int&lt;/div&gt;&lt;div&gt;+ id_cliente: int&lt;/div&gt;&lt;div&gt;&lt;span style=&quot;background-color: transparent; color: light-dark(rgb(0, 0, 0), rgb(255, 255, 255));&quot;&gt;+ id_avaliacao: int&lt;/span&gt;&lt;/div&gt;&lt;div&gt;&lt;span style=&quot;background-color: transparent; color: light-dark(rgb(0, 0, 0), rgb(255, 255, 255));&quot;&gt;+ id: int&amp;nbsp;&lt;/span&gt;&lt;/div&gt;" style="text;strokeColor=none;fillColor=none;align=left;verticalAlign=top;spacingLeft=4;spacingRight=4;overflow=hidden;rotatable=0;points=[[0,0.5],[1,0.5]];portConstraint=eastwest;whiteSpace=wrap;html=1;" vertex="1" parent="NhIJOwC5-hId4QMddHVE-14">
          <mxGeometry y="26" width="160" height="94" as="geometry" />
        </mxCell>
        <mxCell id="NhIJOwC5-hId4QMddHVE-16" value="" style="line;strokeWidth=1;fillColor=none;align=left;verticalAlign=middle;spacingTop=-1;spacingLeft=3;spacingRight=3;rotatable=0;labelPosition=right;points=[];portConstraint=eastwest;strokeColor=inherit;" vertex="1" parent="NhIJOwC5-hId4QMddHVE-14">
          <mxGeometry y="120" width="160" height="8" as="geometry" />
        </mxCell>
        <mxCell id="NhIJOwC5-hId4QMddHVE-17" value="+ to_dict()&lt;div&gt;+ from_dict()&lt;/div&gt;&lt;div&gt;+ __str__()&lt;/div&gt;&lt;div&gt;+ __repr__()&lt;/div&gt;" style="text;strokeColor=none;fillColor=none;align=left;verticalAlign=top;spacingLeft=4;spacingRight=4;overflow=hidden;rotatable=0;points=[[0,0.5],[1,0.5]];portConstraint=eastwest;whiteSpace=wrap;html=1;" vertex="1" parent="NhIJOwC5-hId4QMddHVE-14">
          <mxGeometry y="128" width="160" height="72" as="geometry" />
        </mxCell>
        <mxCell id="NhIJOwC5-hId4QMddHVE-20" value="" style="endArrow=open;endFill=1;endSize=12;html=1;rounded=0;" edge="1" parent="1">
          <mxGeometry width="160" relative="1" as="geometry">
            <mxPoint x="414" y="330" as="sourcePoint" />
            <mxPoint x="414" y="230" as="targetPoint" />
          </mxGeometry>
        </mxCell>
        <mxCell id="NhIJOwC5-hId4QMddHVE-22" value="" style="endArrow=open;endFill=1;endSize=12;html=1;rounded=0;" edge="1" parent="1">
          <mxGeometry width="160" relative="1" as="geometry">
            <mxPoint x="414" y="690" as="sourcePoint" />
            <mxPoint x="414" y="560" as="targetPoint" />
          </mxGeometry>
        </mxCell>
        <mxCell id="NhIJOwC5-hId4QMddHVE-25" value="1" style="text;html=1;align=center;verticalAlign=middle;resizable=0;points=[];autosize=1;strokeColor=none;fillColor=none;" vertex="1" parent="1">
          <mxGeometry x="420" y="230" width="30" height="30" as="geometry" />
        </mxCell>
        <mxCell id="NhIJOwC5-hId4QMddHVE-26" value="*" style="text;html=1;align=center;verticalAlign=middle;resizable=0;points=[];autosize=1;strokeColor=none;fillColor=none;" vertex="1" parent="1">
          <mxGeometry x="420" y="300" width="30" height="30" as="geometry" />
        </mxCell>
        <mxCell id="NhIJOwC5-hId4QMddHVE-27" value="1" style="text;html=1;align=center;verticalAlign=middle;resizable=0;points=[];autosize=1;strokeColor=none;fillColor=none;" vertex="1" parent="1">
          <mxGeometry x="414" y="560" width="30" height="30" as="geometry" />
        </mxCell>
        <mxCell id="NhIJOwC5-hId4QMddHVE-28" value="0..1" style="text;html=1;align=center;verticalAlign=middle;resizable=0;points=[];autosize=1;strokeColor=none;fillColor=none;" vertex="1" parent="1">
          <mxGeometry x="415" y="660" width="40" height="30" as="geometry" />
        </mxCell>
      </root>
    </mxGraphModel>
  </diagram>
</mxfile>
